#!OML:ASF X:\für Bonn\!DataBase\2005_08_12_Daniel\c3d\Daniel.ASF
:FULLY-SPECIFIED
:DEGREES
1
root 0.258616 17.3433 3.88827 167.463 6.66901 -183.147
lowerback 16.4966 -2.30124 -3.05072
upperback 5.72675 -2.78162 -3.26968
thorax -3.1366 -0.990454 -1.21723
lowerneck 4.65751 2.38835 -4.37518
upperneck 24.7052 7.43213 -3.27355
head 6.83826 4.14168 0.139202
rclavicle 9.54166e-015 2.54444e-014
rhumerus -45.8633 28.3917 -109.64
rradius 85.3689
rwrist -70.665
rhand -8.94824 7.93167
rfingers 7.12502
rthumb 16.9963 -21.3447
lclavicle 9.54166e-015 2.54444e-014
lhumerus -32.3871 23.4225 72.2102
lradius 32.0388
lwrist -15.6212
lhand -12.5348 -6.74792
lfingers 7.12502
lthumb 13.5416 22.7918
rfemur -12.7039 22.6061 14.6839
rtibia 23.0041
rfoot -16.6574 -15.4915
rtoes -9.22266
lfemur 15.0332 -2.35702 -23.5418
ltibia 30.4206
lfoot -24.4707 0.20296
ltoes -6.8803
2
root 0.286079 17.3371 3.78866 167.325 6.55614 -183.064
lowerback 16.5753 -2.31236 -2.79401
upperback 5.78424 -2.74735 -3.20036
thorax -3.12797 -0.969952 -1.29379
lowerneck 4.63564 2.35942 -4.5519
upperneck 24.761 7.40304 -3.20608
head 6.85419 4.12113 0.19162
rclavicle 2.92213e-014 3.10104e-014
rhumerus -45.8776 28.3071 -109.541
rradius 84.9294
rwrist -70.3227
rhand -9.25324 7.86789
rfingers 7.12502
rthumb 16.7027 -21.4335
lclavicle 2.92213e-014 3.10104e-014
lhumerus -32.2928 23.2748 72.4828
lradius 32.6547
lwrist -15.3053
lhand -12.5721 -7.01451
lfingers 7.12502
lthumb 13.5057 22.5275
rfemur -12.4078 21.3183 14.9772
rtibia 23.1609
rfoot -14.8798 -14.5512
rtoes -8.29946
lfemur 15.1826 -1.9702 -23.1009
ltibia 30.942
lfoot -24.3084 -0.513255
ltoes -6.75355
3
root 0.313844 17.3313 3.69082 167.166 6.43549 -182.96
lowerback 16.696 -2.33473 -2.4975
upperback 5.84139 -2.72146 -3.16331
thorax -3.14544 -0.951339 -1.42439
lowerneck 4.63949 2.32213 -4.60349
upperneck 24.8252 7.36785 -3.16678
head 6.87243 4.10734 0.213369
rclavicle -1.10325e-014 -3.73715e-014
rhumerus -45.8919 28.1373 -109.524
rradius 84.4496
rwrist -69.8912
rhand -9.57776 7.82728
rfingers 7.12502
rthumb 16.3902 -21.5002
lclavicle -1.10325e-014 -3.73715e-014
lhumerus -32.2367 23.1592 72.6706
lradius 33.2838
lwrist -14.9878
lhand -12.6111 -7.22429
lfingers 7.12502
lthumb 13.4681 22.3203
rfemur -12.0841 20.0274 15.2853
rtibia 23.3516
rfoot -13.1886 -13.6301
rtoes -7.49296
lfemur 15.2685 -1.57335 -22.6136
ltibia 31.5902
lfoot -24.1521 -1.22685
ltoes -6.75822
4
root 0.342906 17.3266 3.59426 166.996 6.29638 -182.841
lowerback 16.8329 -2.35874 -2.21434
upperback 5.91017 -2.69628 -3.09322
thorax -3.15633 -0.932707 -1.5125
lowerneck 4.62252 2.28179 -4.69978
upperneck 24.8995 7.336 -3.13908
head 6.8973 4.09035 0.239979
rclavicle -2.71341e-014 -3.02153e-014
rhumerus -45.8574 28.0264 -109.453
rradius 83.9176
rwrist -69.4909
rhand -9.9243 7.84359
rfingers 7.12502
rthumb 16.0565 -21.5111
lclavicle -2.71341e-014 -3.02153e-014
lhumerus -32.1858 23.2385 72.8897
lradius 33.8788
lwrist -14.715
lhand -12.6339 -7.43151
lfingers 7.12502
lthumb 13.4461 22.1145
rfemur -11.7643 18.6808 15.5953
rtibia 23.5983
rfoot -11.6692 -12.651
rtoes -6.94799
lfemur 15.2974 -1.20497 -22.0938
ltibia 32.337
lfoot -23.9976 -1.99576
ltoes -6.74514
5
root 0.372239 17.3191 3.49983 166.827 6.13578 -182.698
lowerback 16.9933 -2.38574 -1.91968
upperback 5.97939 -2.67174 -3.00186
thorax -3.17843 -0.914033 -1.58416
lowerneck 4.62245 2.24023 -4.83783
upperneck 24.9487 7.29321 -3.09301
head 6.90941 4.06616 0.277817
rclavicle -2.05742e-014 1.39149e-014
rhumerus -45.8027 27.8814 -109.336
rradius 83.3441
rwrist -69.1033
rhand -10.2188 7.88175
rfingers 7.12502
rthumb 15.773 -21.4956
lclavicle -2.05742e-014 1.39149e-014
lhumerus -32.1384 23.3033 73.1488
lradius 34.464
lwrist -14.3345
lhand -12.6377 -7.60587
lfingers 7.12502
lthumb 13.4424 21.9404
rfemur -11.4643 17.2619 15.9072
rtibia 23.8962
rfoot -10.4389 -11.5907
rtoes -7.14384
lfemur 15.2489 -0.860438 -21.5343
ltibia 33.2029
lfoot -23.8174 -2.76471
ltoes -6.68318
6
root 0.402146 17.3124 3.40738 166.645 5.95804 -182.563
lowerback 17.1764 -2.42655 -1.63975
upperback 6.05788 -2.6639 -2.92714
thorax -3.2025 -0.901676 -1.66169
lowerneck 4.58101 2.18953 -4.90195
upperneck 25.0308 7.25394 -3.09479
head 6.94306 4.04497 0.290237
rclavicle 1.33683e-014 1.55052e-014
rhumerus -45.7235 27.77 -109.235
rradius 82.7712
rwrist -68.7538
rhand -10.5113 7.8415
rfingers 7.12502
rthumb 15.4912 -21.5579
lclavicle 1.33683e-014 1.55052e-014
lhumerus -32.1214 23.2859 73.4176
lradius 35.0999
lwrist -13.6935
lhand -12.6697 -7.71627
lfingers 7.12502
lthumb 13.4116 21.832
rfemur -11.175 15.9685 16.1931
rtibia 24.2575
rfoot -9.56078 -10.6079
rtoes -8.04887
lfemur 15.1329 -0.511755 -20.96
ltibia 34.1753
lfoot -23.6082 -3.59367
ltoes -6.82497
7
root 0.433362 17.303 3.31732 166.48 5.76397 -182.407
lowerback 17.3705 -2.45889 -1.35746
upperback 6.11529 -2.6467 -2.8329
thorax -3.25348 -0.886014 -1.72132
lowerneck 4.65187 2.13774 -4.97797
upperneck 25.0303 7.19843 -3.10405
head 6.93052 4.01908 0.296126
rclavicle -7.85199e-015 -9.14409e-015
rhumerus -45.6592 27.5999 -109.117
rradius 82.178
rwrist -68.3989
rhand -10.8271 7.83711
rfingers 7.12502
rthumb 15.187 -21.5855
lclavicle -7.85199e-015 -9.14409e-015
lhumerus -32.1437 23.3347 73.7046
lradius 35.7199
lwrist -13.1923
lhand -12.723 -7.77642
lfingers 7.12502
lthumb 13.3602 21.7752
rfemur -10.9269 14.7505 16.4751
rtibia 24.681
rfoot -8.95801 -9.68047
rtoes -9.46604
lfemur 14.9202 -0.182357 -20.3451
ltibia 35.2767
lfoot -23.324 -4.41324
ltoes -6.89289
